# xmcd
#
# Track frame offsets:
#	150
#	10160
#	23625
#	38283
#	51948
#	65048
#	75805
#	87883
#	100960
#	111483
#	125830
#	136823
#	151243
#	165573
#	179555
#	189143
#	200900
#	214748
#	227343
#	238818
#	249843
#	262320
#
# Disc length: 3661 seconds
# Revision: 6
# Processed by: cddbd v1.5.2PL0 Copyright (c) Steve Scherf et al.
# Submitted via: dBpowerAMP V12.0
#
DISCID=240e4b16
DTITLE=Various Artist - Contemporary Country: The Early 70's Hot Hits
DYEAR=1993
DGENRE=Country
TTITLE0=Johnny Paycheck - Mr. Lovemaker
TTITLE1=George Jones and Tammy Wynette - We're Gonna Hold On
TTITLE2=Mel Street - Borrowed Angel
TTITLE3=Waylon Jennings - Good Hearted Woman
TTITLE4=Johnny Cash - Man In Black
TTITLE5=Charley Pride - I'm Just Me
TTITLE6=Loretta Lynn - One's On The Way
TTITLE7=The Statler Brothers - Do You Remember These
TTITLE8=Johnny Rodriguez - You Always Come Back (To Hurting Me)
TTITLE9=Conway Twitty - Fifteen Years Ago
TTITLE10=Jerry Lee Lewis - Once More With Feeling
TTITLE11=Red Simpson - I'm A Truck
TTITLE12=Buck Owens - Big In Vegas
TTITLE13=Dave Dudley - The Pool Shark
TTITLE14=George Jones - We Can Make It
TTITLE15=Sonny James - It's Just A Matter Of Time
TTITLE16=Porter Wagoner and Dolly Parton - Daddy Was An Old Time Preacher Man-w/Dolly Parton
TTITLE17=Bobby Bare - Come Sundown
TTITLE18=Connie Smith - Just One Time
TTITLE19=Freddie Hart - Got The All Overs For You (All Over Me)
TTITLE20=Jerry Wallace - If You Leave Me Tonight I'll Cry
TTITLE21=Hank Williams Jr. - Eleven Roses
EXTD=
EXTT0=
EXTT1=
EXTT2=
EXTT3=
EXTT4=
EXTT5=
EXTT6=
EXTT7=
EXTT8=
EXTT9=
EXTT10=
EXTT11=
EXTT12=
EXTT13=
EXTT14=
EXTT15=
EXTT16=
EXTT17=
EXTT18=
EXTT19=
EXTT20=
EXTT21=
PLAYORDER=
